<svg width="111" height="27" viewBox="0 0 111 27" fill="none" xmlns="http://www.w3.org/2000/svg">
<g clip-path="url(#clip0_1350_176)">
<path d="M4.90003 21.2889L6.16316 17.2379H11.1656L12.3501 21.2889H16.9835L12.3763 5.83851C12.1132 4.93166 11.5335 4.50381 10.5335 4.50381H3.97972V5.96371H4.53213C5.21666 5.96371 5.5857 6.21628 5.5857 6.71816C5.5857 7.04584 5.50597 7.32237 5.24286 8.0779L0.634521 21.2889H4.90003ZM10.5335 14.4945H6.8215L8.79536 8.32829L10.5335 14.4945ZM22.322 21.2889V5.78735C22.322 4.98282 21.8231 4.50381 21.0053 4.50381H16.9516V5.96371H17.2147C17.8993 5.96371 18.1886 6.24023 18.1886 6.89452V21.2878H22.322V21.2889ZM29.3438 21.2889V5.78735C29.3438 4.98282 28.8427 4.50381 28.0294 4.50381H23.9735V5.96371H24.2366C24.9211 5.96371 25.2104 6.24023 25.2104 6.89452V21.2878H29.3438V21.2889ZM36.4727 21.2889V9.98851C36.4727 9.18507 35.9727 8.70715 35.1572 8.70715H31.1548V10.1409H31.3928C32.0774 10.1409 32.3667 10.4425 32.3667 11.0968V21.2878H36.4727V21.2889ZM36.5513 6.03883C36.5513 4.90662 35.6834 4.22729 34.1822 4.22729C32.7072 4.22729 31.8131 4.90662 31.8131 6.03883C31.8131 7.17104 32.7072 7.85146 34.1822 7.85146C35.6834 7.85146 36.5513 7.17104 36.5513 6.03883ZM39.9671 12.3041C41.3362 11.6759 42.8374 11.3243 44.0219 11.3243C45.1267 11.3243 45.522 11.7021 45.522 12.8071V13.0847C43.8374 13.3351 43.3112 13.4374 42.3636 13.6388C41.8327 13.7561 41.313 13.9156 40.81 14.1156C39.1516 14.7449 38.3612 15.9783 38.3612 17.8639C38.3612 20.2535 39.4409 21.413 41.679 21.413C42.4945 21.413 43.2326 21.2638 43.8898 21.0112C44.4696 20.7609 44.8112 20.5584 45.6541 19.9291V20.1055C45.6541 20.8861 46.0755 21.2878 46.891 21.2878H50.6554V19.9291H50.472C49.7601 19.9291 49.497 19.6276 49.497 18.8209V12.8332C49.497 9.63687 48.3387 8.5297 44.9946 8.5297C43.9171 8.5297 42.8647 8.65489 41.8362 8.88134C40.81 9.10778 40.2826 9.30918 39.0457 9.88944L39.9671 12.3041ZM45.522 15.25V17.6908C44.8374 18.3691 43.9957 18.773 43.2839 18.773C42.5481 18.773 42.285 18.4202 42.285 17.4883C42.285 16.5564 42.4945 16.1297 43.2326 15.8532C43.785 15.6267 44.4957 15.4264 45.522 15.25ZM56.6521 21.2889V12.7842C57.3367 12.0548 58.0474 11.7271 58.8629 11.7271C59.732 11.7271 59.9415 12.0548 59.9415 13.3144V21.2899H64.0476V12.7352C64.0476 10.7473 63.8904 10.1191 63.2309 9.43873C62.6785 8.85956 61.8368 8.55582 60.7559 8.55582C59.1522 8.55582 58.0189 9.03484 56.4916 10.3935V9.89053C56.4916 9.10887 56.0724 8.70715 55.2273 8.70715H51.3319V10.1409H51.5689C52.2545 10.1409 52.5438 10.4425 52.5438 11.0968V21.2878H56.6521V21.2889ZM76.2347 18.6456H70.4942L75.9716 11.2993V8.70715H67.3894C66.4133 8.70715 65.9679 9.13391 65.9679 10.0658V12.3542H67.4953V12.1288C67.4953 11.5507 67.8108 11.2731 68.468 11.2731H71.418L65.8893 18.6967V21.2889H76.237V18.6456H76.2347ZM110.61 13.4875C110.61 5.76231 104.581 0 96.4962 0C88.4151 0 82.3591 5.76231 82.3591 13.4875C82.3591 21.2377 88.4151 27 96.4962 27C104.581 27 110.61 21.2377 110.61 13.4875ZM107.819 13.4875C107.819 19.854 103.026 24.4852 96.4962 24.4852C89.9413 24.4852 85.1769 19.854 85.1769 13.4875C85.1769 7.14709 89.9424 2.517 96.4962 2.517C103.026 2.517 107.819 7.14709 107.819 13.4875ZM92.8377 20.6084V8.4045H90.5461C89.414 8.4045 88.9652 8.83235 88.9652 9.91448V20.6074H92.8377V20.6084ZM100.155 20.6084H104V9.91448C104 8.83235 103.578 8.4045 102.419 8.4045H100.155V20.6084ZM98.4188 20.6084V6.44272C98.4188 5.30942 98.0235 4.93166 96.8379 4.93166H93.3902V6.49171H93.6009L93.9699 6.51566C94.102 6.51566 94.2319 6.59187 94.3389 6.69312C94.4972 6.86839 94.5485 7.04476 94.5485 7.42252V20.6084H98.4188Z" fill="#1A1A1A"/>
</g>
<defs>
<clipPath id="clip0_1350_176">
<rect width="110" height="27" fill="white" transform="translate(0.623047)"/>
</clipPath>
</defs>
</svg>
