<svg width="109" height="26" viewBox="0 0 109 26" fill="none" xmlns="http://www.w3.org/2000/svg">
<path fill-rule="evenodd" clip-rule="evenodd" d="M37.7251 21.9441C35.1366 21.9441 33.7029 19.7667 33.7029 17.4354C33.7029 15.1022 35.1765 12.9638 37.7251 12.9638C40.3534 12.9638 41.8265 15.0244 41.8265 17.4354C41.8265 19.8452 40.3528 21.9441 37.7251 21.9441ZM44.1358 11.2135H41.7068V13.2741H41.6271C40.6313 11.7963 39.1184 10.8637 37.2465 10.8637C33.5427 10.8637 31.2733 13.9354 31.2733 17.3563C31.2733 20.894 33.4636 24.0436 37.3263 24.0436C39.1577 24.0436 40.6712 23.1109 41.6271 21.6721H41.7068V23.6153H44.1358V11.2135ZM49.3924 13.2351H49.4721C50.0697 11.7969 51.3041 10.8637 52.9367 10.8637C53.6533 10.8637 54.3306 11.0967 54.9276 11.4471L53.8134 13.6245C53.3754 13.2747 52.8974 13.1189 52.3397 13.1189C49.7114 13.1189 49.393 15.5293 49.393 17.512V23.6153H46.9236V11.2135H49.3924V13.2351ZM65.0825 14.7512C64.1261 13.6634 62.9315 13.08 61.4591 13.08C59.0694 13.08 57.1982 15.1406 57.1982 17.4354C57.1982 19.9626 59.0289 21.8285 61.6186 21.8285C63.0119 21.8285 64.1659 21.1672 65.0825 20.195V23.2271C63.9672 23.8112 62.8524 24.0436 61.5775 24.0436C57.8338 24.0436 54.768 21.2438 54.768 17.512C54.768 13.7018 57.7945 10.8637 61.7364 10.8637C62.8518 10.8637 64.1261 11.1356 65.0819 11.6801V14.7512H65.0825ZM69.0649 16.0349C69.344 14.2475 70.738 12.9249 72.6491 12.9249C74.6001 12.9249 75.8351 14.169 76.1529 16.0349H69.0649ZM78.5824 17.8235V17.4354C78.5824 13.7802 76.7106 10.8643 72.6485 10.8643C68.5465 10.8643 66.4758 13.7024 66.4758 17.5126C66.4758 21.1678 68.8256 24.0442 72.6877 24.0442C75.1571 24.0442 77.3873 22.8007 78.5818 20.6622L76.5504 19.5343C75.594 21.012 74.5982 21.9441 72.727 21.9441C70.4177 21.9441 68.944 19.9224 68.9048 17.8235H78.5824ZM80.7721 0.638672H83.2415V23.6159H80.7721V0.638672ZM91.8032 13.1189C94.2321 13.1189 96.1432 15.1022 96.1432 17.4354C96.1432 19.7673 94.2321 21.75 91.8032 21.75C89.3742 21.75 87.4619 19.7667 87.4619 17.4354C87.4619 15.1022 89.3742 13.1189 91.8032 13.1189ZM91.8032 10.8637C88.0202 10.8637 85.033 13.7018 85.033 17.4348C85.033 21.1666 88.0202 24.0436 91.8032 24.0436C95.5861 24.0436 98.5721 21.1666 98.5721 17.4348C98.5721 13.7018 95.5861 10.8637 91.8032 10.8637ZM102.874 13.2351H102.953C103.551 11.7969 104.785 10.8637 106.417 10.8637C107.134 10.8637 107.852 11.0967 108.449 11.4471L107.334 13.6245C106.896 13.2747 106.418 13.1189 105.821 13.1189C103.192 13.1189 102.874 15.5293 102.874 17.512V23.6153H100.444V11.2135H102.874V13.2351Z" fill="#1A1A1A"/>
<path fill-rule="evenodd" clip-rule="evenodd" d="M23.9466 8.99742C19.8446 6.0814 14.1904 6.74212 10.9645 10.4363C6.58402 8.18096 2.5219 7.71432 1.1286 9.54193C-0.623614 11.7972 2.32312 16.8128 7.73866 20.8562C6.10608 18.5619 6.06621 15.4524 7.89818 13.0803C10.1682 10.1254 14.469 9.54193 17.5353 11.7194C20.5618 13.9363 21.1987 18.0953 18.9293 21.0509C17.3359 23.0725 14.788 24.0064 12.3585 23.6165V23.656C12.4382 23.6943 12.4781 23.7333 12.518 23.7716C16.739 26.805 22.7122 25.9886 25.8583 21.9057C29.0039 17.8233 28.1676 12.0303 23.9466 8.99742Z" fill="#1A1A1A"/>
</svg>
